<svg width="13" height="8" viewBox="0 0 13 8" fill="none" xmlns="http://www.w3.org/2000/svg">
<path d="M6.1895 6.80863L6.12685 6.95979C6.04957 6.92777 5.97937 6.8808 5.92028 6.82159L6.1895 6.80863ZM6.1895 6.80863C6.24694 6.83243 6.30851 6.84465 6.37069 6.84458L6.1895 6.80863ZM6.1895 6.80863C6.13207 6.78482 6.07989 6.7499 6.03599 6.70587L6.8211 6.82159M6.1895 6.80863L6.12685 6.95979C6.20421 6.99186 6.28713 7.00831 6.37086 7.00822L6.37069 6.84458M6.1895 6.80863L6.8211 6.82159L6.1895 6.80863ZM2.08703 1.1867C1.83818 0.937698 1.43503 0.937976 1.18622 1.18663C0.937257 1.43543 0.937309 1.83862 1.18618 2.08749L5.92028 6.82159L6.25498 5.58607L6.37069 5.47035M2.08703 1.1867L6.37069 5.47035L2.08703 1.1867ZM6.37069 5.47035L6.48639 5.58607L10.7701 1.30238C10.9551 1.11739 11.2546 1.11739 11.4395 1.30238C11.6244 1.48736 11.6245 1.78691 11.4395 1.97178M6.37069 5.47035L10.6544 1.18667C10.9033 0.937798 11.3064 0.937745 11.5552 1.1867C11.8039 1.43552 11.8042 1.83867 11.5551 2.08752M11.5551 2.08752L11.4395 1.97178L11.5551 2.08752ZM11.5551 2.08752L11.4395 1.97178L11.5551 2.08752ZM11.5551 2.08752L6.8211 6.82159L6.70539 6.70587M11.4395 1.97178L6.70539 6.70587L11.4395 1.97178ZM6.8211 6.82159L6.70539 6.70587L6.8211 6.82159ZM6.70539 6.70587C6.66148 6.7499 6.60932 6.78482 6.55188 6.80863C6.49444 6.83243 6.43286 6.84465 6.37069 6.84458M6.8211 6.82159C6.76201 6.8808 6.69181 6.92777 6.61453 6.95979C6.53718 6.99186 6.45459 7.00831 6.37086 7.00822L6.37069 6.84458" fill="white"/>
<path d="M6.1895 6.80863L6.12685 6.95979M6.1895 6.80863L5.92028 6.82159M6.1895 6.80863C6.24694 6.83243 6.30851 6.84465 6.37069 6.84458M6.1895 6.80863C6.13207 6.78482 6.07989 6.7499 6.03599 6.70587L6.8211 6.82159M6.1895 6.80863L6.8211 6.82159M6.12685 6.95979C6.04957 6.92777 5.97937 6.8808 5.92028 6.82159M6.12685 6.95979C6.20421 6.99186 6.28713 7.00831 6.37086 7.00822M5.92028 6.82159L1.18618 2.08749C0.937309 1.83862 0.937257 1.43543 1.18622 1.18663C1.43503 0.937976 1.83818 0.937698 2.08703 1.1867M5.92028 6.82159L6.25498 5.58607L6.37069 5.47035M6.37069 6.84458L6.37086 7.00822M6.37069 6.84458C6.43286 6.84465 6.49444 6.83243 6.55188 6.80863C6.60932 6.78482 6.66148 6.7499 6.70539 6.70587M6.8211 6.82159L11.5551 2.08752M6.8211 6.82159L6.70539 6.70587M6.8211 6.82159C6.76201 6.8808 6.69181 6.92777 6.61453 6.95979C6.53718 6.99186 6.45459 7.00831 6.37086 7.00822M2.08703 1.1867L1.97128 1.30238M2.08703 1.1867L6.37069 5.47035M6.37069 5.47035L6.48639 5.58607L10.7701 1.30238C10.9551 1.11739 11.2546 1.11739 11.4395 1.30238C11.6244 1.48736 11.6245 1.78691 11.4395 1.97178M6.37069 5.47035L10.6544 1.18667C10.9033 0.937798 11.3064 0.937745 11.5552 1.1867C11.8039 1.43552 11.8042 1.83867 11.5551 2.08752M11.4395 1.97178L11.5551 2.08752M11.4395 1.97178L6.70539 6.70587" stroke="white" stroke-width="1.09091"/>
</svg>
