<svg width="20" height="20" viewBox="0 0 20 20" fill="none" xmlns="http://www.w3.org/2000/svg">
<path d="M16.3116 5.7293C16.4212 5.1623 16.4041 4.57809 16.2615 4.01847C16.119 3.45885 15.8544 2.93768 15.4869 2.49226C15.1193 2.04683 14.6578 1.68818 14.1355 1.44197C13.6131 1.19576 13.0427 1.06808 12.4652 1.06808C11.8877 1.06808 11.3174 1.19576 10.795 1.44197C10.2726 1.68818 9.81115 2.04683 9.44359 2.49226C9.07604 2.93768 8.81151 3.45885 8.66894 4.01847C8.52636 4.57809 8.50928 5.1623 8.6189 5.7293H16.3116ZM19.9442 14.2767V12.1399C19.9442 12.0454 19.9067 11.9548 19.8399 11.888C19.7731 11.8212 19.6825 11.7837 19.5881 11.7837H17.4512C17.0734 11.7837 16.7111 11.9338 16.4439 12.201C16.1767 12.4681 16.0267 12.8305 16.0267 13.2083C16.0267 13.5861 16.1767 13.9484 16.4439 14.2156C16.7111 14.4828 17.0734 14.6329 17.4512 14.6329H19.5881C19.6825 14.6329 19.7731 14.5953 19.8399 14.5285C19.9067 14.4618 19.9442 14.3712 19.9442 14.2767Z" fill="white"/>
<path d="M9.8885 1.17246C9.22881 0.512209 8.35488 0.109455 7.42437 0.0368567C6.49386 -0.0357415 5.56804 0.226596 4.81393 0.776542C4.05982 1.32649 3.52708 2.12783 3.31182 3.03601C3.09655 3.94418 3.21294 4.89939 3.63998 5.7293H7.89659C7.85805 5.49379 7.83769 5.25565 7.83569 5.01702C7.83439 4.25662 8.02113 3.5077 8.37928 2.83694C8.73744 2.16617 9.25589 1.59438 9.8885 1.17246ZM18.8761 5.7293V3.2363C18.8761 3.14185 18.8386 3.05126 18.7718 2.98447C18.705 2.91768 18.6144 2.88016 18.52 2.88016H16.5729C16.9173 3.53971 17.0966 4.27296 17.0954 5.01702C17.0934 5.25565 17.073 5.49379 17.0345 5.7293H18.8761Z" fill="white"/>
<path d="M4.63019 9.64686C5.02358 9.64686 5.34248 9.32796 5.34248 8.93457C5.34248 8.54119 5.02358 8.22229 4.63019 8.22229C4.23681 8.22229 3.91791 8.54119 3.91791 8.93457C3.91791 9.32796 4.23681 9.64686 4.63019 9.64686Z" fill="white"/>
<path d="M7.4795 13.9206C7.87288 13.9206 8.19178 13.6017 8.19178 13.2083C8.19178 12.8149 7.87288 12.496 7.4795 12.496C7.08611 12.496 6.76721 12.8149 6.76721 13.2083C6.76721 13.6017 7.08611 13.9206 7.4795 13.9206Z" fill="white"/>
<path d="M2.89639 15.9577C2.82914 15.8775 2.74511 15.8129 2.65024 15.7686C2.55536 15.7243 2.45193 15.7013 2.34722 15.7013H0.000244141V18.5504C0.000244141 18.9283 0.150332 19.2906 0.417491 19.5578C0.684649 19.8249 1.04699 19.975 1.42481 19.975H18.8758C18.9702 19.975 19.0608 19.9375 19.1276 19.8707C19.1944 19.8039 19.2319 19.7133 19.2319 19.6189V15.3452H17.4512C16.8845 15.3452 16.341 15.12 15.9402 14.7193C15.5395 14.3185 15.3144 13.775 15.3144 13.2083C15.3144 12.6416 15.5395 12.0981 15.9402 11.6973C16.341 11.2966 16.8845 11.0714 17.4512 11.0714H19.2319V6.79774C19.2319 6.70328 19.1944 6.61269 19.1276 6.5459C19.0608 6.47911 18.9702 6.44159 18.8758 6.44159H1.4996C0.946934 6.44149 0.413483 6.23875 0.000244141 5.87177V10.7153H2.34722C2.45218 10.7152 2.55585 10.6921 2.65092 10.6476C2.74599 10.6031 2.83014 10.5383 2.89746 10.4578L3.47548 9.76262C3.26746 9.47794 3.17057 9.12709 3.20301 8.77601C3.23545 8.42492 3.39499 8.09777 3.65165 7.85602C3.90831 7.61428 4.24442 7.47459 4.59682 7.46321C4.94922 7.45183 5.29364 7.56954 5.56537 7.79421C5.83709 8.01889 6.01741 8.33507 6.07244 8.68333C6.12747 9.03159 6.05342 9.38796 5.8642 9.68547C5.67498 9.98298 5.38363 10.2011 5.04489 10.299C4.70615 10.3968 4.34334 10.3675 4.02465 10.2167L3.44378 10.9147C3.30973 11.0753 3.14203 11.2045 2.95255 11.2931C2.76306 11.3818 2.55641 11.4277 2.34722 11.4276H0.000244141V12.8522H6.10524C6.19192 12.5164 6.39807 12.2239 6.68504 12.0293C6.97201 11.8347 7.3201 11.7514 7.66407 11.7951C8.00804 11.8388 8.32426 12.0064 8.55347 12.2666C8.78268 12.5267 8.90914 12.8616 8.90914 13.2083C8.90914 13.555 8.78268 13.8899 8.55347 14.15C8.32426 14.4102 8.00804 14.5778 7.66407 14.6215C7.3201 14.6652 6.97201 14.5819 6.68504 14.3873C6.39807 14.1927 6.19192 13.9002 6.10524 13.5644H0.000244141V14.989H2.34722C2.55621 14.9888 2.76269 15.0346 2.95201 15.1231C3.14133 15.2116 3.30886 15.3406 3.44272 15.5011L4.02465 16.1999C4.21332 16.1079 4.42018 16.0592 4.63009 16.0574C4.95236 16.0553 5.26595 16.1617 5.52031 16.3596C5.77467 16.5575 5.95496 16.8353 6.03212 17.1482C6.10928 17.4611 6.07881 17.7909 5.94561 18.0843C5.81242 18.3778 5.58427 18.6178 5.29796 18.7658C5.01164 18.9137 4.68385 18.9609 4.36744 18.8997C4.05103 18.8385 3.76444 18.6726 3.55388 18.4286C3.34333 18.1846 3.22109 17.8768 3.20686 17.5549C3.19264 17.2329 3.28726 16.9156 3.47548 16.654L2.89639 15.9577Z" fill="white"/>
<path d="M4.63019 18.1943C5.02358 18.1943 5.34248 17.8754 5.34248 17.482C5.34248 17.0886 5.02358 16.7697 4.63019 16.7697C4.23681 16.7697 3.91791 17.0886 3.91791 17.482C3.91791 17.8754 4.23681 18.1943 4.63019 18.1943Z" fill="white"/>
<path d="M0.000342514 4.30829C-0.000724641 4.35095 0.000702391 4.39364 0.00461625 4.43614C0.0507181 4.79802 0.228808 5.13014 0.504724 5.36879C0.78064 5.60744 1.13495 5.73582 1.4997 5.7293H2.84734C2.47106 4.82772 2.39233 3.82958 2.62262 2.88016H1.42491C1.04755 2.88166 0.686081 3.03223 0.419247 3.29906C0.152413 3.5659 0.00184296 3.92737 0.000342514 4.30473V4.30829Z" fill="white"/>
</svg>
